<svg width="42" height="42" viewBox="0 0 42 42" fill="none" xmlns="http://www.w3.org/2000/svg">
<path d="M4.36873 41.0833C3.14791 41.0833 2.11458 40.6604 1.26875 39.8146C0.422917 38.9687 0 37.9354 0 36.7146V4.36873C0 3.14791 0.422917 2.11458 1.26875 1.26875C2.11458 0.422917 3.14791 0 4.36873 0H20.6812C21.1948 0 21.6251 0.173799 21.9723 0.521396C22.3199 0.868993 22.4937 1.29956 22.4937 1.8131C22.4937 2.32705 22.3199 2.75742 21.9723 3.10421C21.6251 3.4514 21.1948 3.625 20.6812 3.625H4.36873C4.15163 3.625 3.9734 3.69468 3.83404 3.83404C3.69468 3.9734 3.625 4.15163 3.625 4.36873V36.7146C3.625 36.9317 3.69468 37.1099 3.83404 37.2493C3.9734 37.3887 4.15163 37.4583 4.36873 37.4583H36.7146C36.9317 37.4583 37.1099 37.3887 37.2493 37.2493C37.3887 37.1099 37.4583 36.9317 37.4583 36.7146V20.4021C37.4583 19.8886 37.6321 19.4582 37.9797 19.111C38.3273 18.7634 38.7579 18.5896 39.2714 18.5896C39.7854 18.5896 40.2157 18.7634 40.5625 19.111C40.9097 19.4582 41.0833 19.8886 41.0833 20.4021V36.7146C41.0833 37.9354 40.6604 38.9687 39.8146 39.8146C38.9687 40.6604 37.9354 41.0833 36.7146 41.0833H4.36873ZM6.97148 31.8813H34.1119L25.6771 20.6347L18.4271 30.0458L13.2917 23.516L6.97148 31.8813ZM32.625 8.45833H29.6042C29.0906 8.45833 28.6601 8.28453 28.3125 7.93694C27.9653 7.58934 27.7917 7.15877 27.7917 6.64523C27.7917 6.13128 27.9653 5.70092 28.3125 5.35412C28.6601 5.00693 29.0906 4.83333 29.6042 4.83333H32.625V1.8125C32.625 1.29896 32.7988 0.868591 33.1464 0.521396C33.494 0.173799 33.9246 0 34.4381 0C34.952 0 35.3824 0.173799 35.7292 0.521396C36.0764 0.868591 36.25 1.29896 36.25 1.8125V4.83333H39.2708C39.7844 4.83333 40.2147 5.00713 40.5619 5.35473C40.9095 5.70233 41.0833 6.1329 41.0833 6.64644C41.0833 7.16038 40.9095 7.59075 40.5619 7.93754C40.2147 8.28474 39.7844 8.45833 39.2708 8.45833H36.25V11.4792C36.25 11.9927 36.0762 12.4233 35.7286 12.7709C35.381 13.1181 34.9504 13.2917 34.4369 13.2917C33.9229 13.2917 33.4926 13.1181 33.1458 12.7709C32.7986 12.4233 32.625 11.9927 32.625 11.4792V8.45833Z" fill="#1626FF"/>
</svg>
